<?xml version="1.0" encoding="UTF-8" standalone="no"?>
<!-- Created with Inkscape (http://www.inkscape.org/) -->

<svg
   xmlns:dc="http://purl.org/dc/elements/1.1/"
   xmlns:cc="http://creativecommons.org/ns#"
   xmlns:rdf="http://www.w3.org/1999/02/22-rdf-syntax-ns#"
   xmlns:svg="http://www.w3.org/2000/svg"
   xmlns="http://www.w3.org/2000/svg"
   xmlns:sodipodi="http://sodipodi.sourceforge.net/DTD/sodipodi-0.dtd"
   xmlns:inkscape="http://www.inkscape.org/namespaces/inkscape"
   width="210mm"
   height="297mm"
   viewBox="0 0 210 297"
   version="1.1"
   id="svg8"
   inkscape:version="0.92.2 5c3e80d, 2017-08-06"
   sodipodi:docname="images-inkscape.svg">
  <defs
     id="defs2" />
  <sodipodi:namedview
     id="base"
     pagecolor="#ffffff"
     bordercolor="#666666"
     borderopacity="1.0"
     inkscape:pageopacity="0.0"
     inkscape:pageshadow="2"
     inkscape:zoom="0.35"
     inkscape:cx="-352.85714"
     inkscape:cy="102.85714"
     inkscape:document-units="mm"
     inkscape:current-layer="layer2"
     showgrid="false"
     inkscape:window-width="1680"
     inkscape:window-height="951"
     inkscape:window-x="0"
     inkscape:window-y="1"
     inkscape:window-maximized="1"
     inkscape:snap-nodes="false" />
  <metadata
     id="metadata5">
    <rdf:RDF>
      <cc:Work
         rdf:about="">
        <dc:format>image/svg+xml</dc:format>
        <dc:type
           rdf:resource="http://purl.org/dc/dcmitype/StillImage" />
        <dc:title></dc:title>
      </cc:Work>
    </rdf:RDF>
  </metadata>
  <g
     inkscape:label="Layer 1"
     inkscape:groupmode="layer"
     id="layer1">
    <rect
       id="rect10"
       width="297.65625"
       height="644.52502"
       x="-32.033478"
       y="-169.27144"
       style="fill:#234aac;fill-opacity:1;stroke-width:0.88619304" />
  </g>
  <g
     inkscape:groupmode="layer"
     id="layer2"
     inkscape:label="Layer 2">
    <rect
       style="fill:#234aac;fill-opacity:1;stroke-width:0.16037248"
       id="rect4526"
       width="135.46666"
       height="135.46666"
       x="-368.98035"
       y="72.784515"
       ry="20.410715"
       inkscape:export-filename="/Users/marius/Development/rock-paper-scissors-pwa/src/img/icon/icon-192.png"
       inkscape:export-xdpi="36.000004"
       inkscape:export-ydpi="36.000004" />
    <path
       id="path4726"
       d="m -333.14821,148.10846 7.35672,-0.003 c 0.53749,0 1.07525,-0.0611 1.59779,-0.18173 l 12.50636,-2.88246 c 3.1905,-0.73525 5.44379,-3.55341 5.44379,-6.78438 v -21.61861 c 0,-2.50603 -1.36942,-4.82927 -3.57383,-6.06302 l -10.29934,-5.76485 c -3.61623,-2.02427 -7.06906,-0.61207 -9.69177,2.59937 l -15.23136,-5.85987 c -3.98179,-1.53223 -8.47204,0.39167 -10.05163,4.33008 -1.58675,3.95604 0.38204,8.4466 4.40796,9.99592 l 8.28684,1.96309 -9.87906,-0.96069 c -4.28834,0 -7.77714,3.44833 -7.77714,7.68675 0,4.23853 3.4888,7.68685 7.77714,7.68685 h 9.21011 c -0.38622,2.75825 0.91349,5.39112 3.18872,6.83189 -1.39978,4.47615 2.00399,9.02292 6.7287,9.02292 z m 0,-5.04599 c -2.64423,0 -2.64003,-3.84306 0,-3.84306 0.92873,0 1.68155,-0.7528 1.68155,-1.68154 v -0.72053 c 0,-0.92873 -0.75282,-1.68155 -1.68155,-1.68155 h -2.9427 c -2.64411,0 -2.64024,-3.84304 0,-3.84304 h 2.9427 c 0.92873,0 1.68155,-0.75281 1.68155,-1.68155 v -0.72055 c 0,-0.92873 -0.75282,-1.68153 -1.68155,-1.68153 h -19.12753 c -3.61845,0 -3.61269,-5.28436 0,-5.28436 h 19.12753 c 0.92873,0 1.68155,-0.75279 1.68155,-1.68151 v -1.2225 a 1.6815407,1.6815407 0 0 0 -1.07767,-1.56941 l -16.32743,-6.28319 c -3.31601,-1.27586 -1.41166,-6.23042 2.02014,-4.90978 l 17.50369,6.73573 a 1.6816456,1.6816455 0 0 0 1.90632,-0.50572 l 2.28733,-2.8005 c 0.61167,-0.74902 1.71813,-0.95259 2.5736,-0.47378 l 10.29944,5.76495 c 0.61249,0.34294 0.99305,0.9793 0.99305,1.66107 v 21.61841 c 0,0.89236 -0.62994,1.66094 -1.53188,1.86881 l -12.50655,2.88247 a 2.0749161,2.0749161 0 0 1 -0.46487,0.0527 h -7.35672 z"
       inkscape:connector-curvature="0"
       style="fill:#ff6600;fill-opacity:1;stroke:#000000;stroke-width:1.70000005;stroke-miterlimit:4;stroke-dasharray:none;stroke-opacity:1"
       inkscape:export-filename="/Users/marius/Development/rock-paper-scissors-pwa/src/img/icon/icon-192.png"
       inkscape:export-xdpi="36.000004"
       inkscape:export-ydpi="36.000004" />
    <path
       id="path4737"
       d="m -277.57746,161.83487 c 0,-2.62802 -2.08281,-4.82673 -4.71054,-4.87056 -2.68423,-0.0448 -4.87426,2.11763 -4.87426,4.7917 h -0.79873 v -3.11605 c 0,-2.62803 -2.0828,-4.82675 -4.71053,-4.87057 -2.68424,-0.0448 -4.87425,2.11764 -4.87425,4.79169 v 3.19493 h -0.79872 v -4.71353 c 0,-2.62802 -2.08281,-4.82673 -4.71054,-4.87057 -2.68422,-0.0448 -4.87426,2.11766 -4.87426,4.7917 v 4.7924 h -0.79873 v -3.11605 c 0,-2.62803 -2.08278,-4.82675 -4.71051,-4.87057 -2.68424,-0.0448 -4.87427,2.11764 -4.87427,4.79169 v 13.57844 l -0.79873,-0.70998 v -4.80227 c 0,-2.62804 -2.0828,-4.82675 -4.71051,-4.87057 -2.68424,-0.0448 -4.87429,2.11764 -4.87429,4.79169 v 6.63399 a 9.5845823,9.5845823 0 0 0 3.21702,7.16371 l 11.1491,9.91036 a 4.7922905,4.7922904 0 0 1 1.60854,3.58192 v 0.66564 c 0,1.32339 1.07279,2.39618 2.39619,2.39618 h 23.96196 c 1.32341,0 2.3962,-1.07279 2.3962,-2.39618 v -0.29162 a 9.5857803,9.5857803 0 0 1 0.75109,-3.7195 l 4.88765,-11.60809 a 9.5849813,9.5849804 0 0 0 0.75112,-3.71949 z"
       inkscape:connector-curvature="0"
       style="fill:#ff6600;fill-opacity:1;stroke:#000000;stroke-width:1.70000005;stroke-miterlimit:4;stroke-dasharray:none;stroke-opacity:1"
       inkscape:export-filename="/Users/marius/Development/rock-paper-scissors-pwa/src/img/icon/icon-192.png"
       inkscape:export-xdpi="36.000004"
       inkscape:export-ydpi="36.000004" />
    <path
       id="path4748"
       d="m -254.62061,102.13461 v -1.32691 c 0,-5.345915 -4.96692,-9.400705 -10.17885,-8.034555 -3.14158,-6.06767 -11.53347,-5.81639 -14.46213,0.0916 -5.06006,-1.29455 -10.10113,2.56533 -10.10113,7.965545 v 15.46092 c -2.44582,-0.91041 -5.30867,-0.62124 -7.6101,1.0874 -3.5983,2.67174 -4.38757,7.76331 -1.78352,11.41861 l 14.7057,20.64416 a 3.9225324,3.9225324 0 0 0 3.19467,1.64649 h 27.32251 c 1.82692,0 3.41199,-1.26121 3.82226,-3.04157 l 3.69993,-16.05271 a 24.961648,24.961648 0 0 0 0.6368,-5.5977 v -16.127 c 0,-4.97915 -4.35438,-8.82472 -9.24614,-8.13424 z m 3.36197,24.26112 c 0,1.43797 -0.16352,2.87682 -0.48602,4.2763 l -3.34948,14.53188 h -24.75118 l -14.12061,-19.82069 c -1.76993,-2.48467 1.84148,-5.24343 3.60306,-2.77089 l 3.32533,4.6677 c 1.10261,1.54767 3.5586,0.77065 3.5586,-1.13791 v -25.31187 c 0,-3.143515 4.48285,-3.041175 4.48285,0.0847 v 18.79245 c 0,1.08328 0.87804,1.96132 1.96126,1.96132 h 0.84042 c 1.08322,0 1.96126,-0.87804 1.96126,-1.96132 V 96.539995 c 0,-3.14574 4.48283,-3.04118 4.48283,0.0847 V 119.7074 c 0,1.08328 0.87803,1.96131 1.96126,1.96131 h 0.84043 c 1.08322,0 1.96125,-0.87803 1.96125,-1.96131 V 100.723 c 0,-3.146855 4.48272,-3.041195 4.48272,0.0847 v 18.89972 c 0,1.08326 0.87804,1.9613 1.96128,1.9613 h 0.84052 c 1.08322,0 1.96126,-0.87804 1.96126,-1.9613 v -9.35385 c 0,-3.21674 4.48272,-3.14294 4.48272,-0.0847 v 16.12688 z"
       inkscape:connector-curvature="0"
       style="fill:#ff6600;fill-opacity:1;stroke:#000000;stroke-width:1.70000005;stroke-miterlimit:4;stroke-dasharray:none;stroke-opacity:1"
       inkscape:export-filename="/Users/marius/Development/rock-paper-scissors-pwa/src/img/icon/icon-192.png"
       inkscape:export-xdpi="36.000004"
       inkscape:export-ydpi="36.000004" />
  </g>
</svg>
